<?xml version="1.0" encoding="iso-8859-1"?>
<!-- Generator: Adobe Illustrator 21.0.0, SVG Export Plug-In . SVG Version: 6.00 Build 0)  -->
<svg version="1.1" id="Capa_1" xmlns="http://www.w3.org/2000/svg" xmlns:xlink="http://www.w3.org/1999/xlink" x="0px" y="0px"
	 viewBox="0 0 617.917 617.917" style="enable-background:new 0 0 617.917 617.917;" xml:space="preserve">
<g>
	<g>
		<g id="filled_outline_27_">
			<path style="fill:#E38800;" d="M432.151,432.076c-54.066,55.219-116.541,101.514-185.099,137.178l0,0
				c143.785,34.181,288.055-54.673,322.236-198.459c9.675-40.707,9.675-83.111-0.01-123.818
				C533.634,315.535,487.349,378.01,432.151,432.076z"/>
			<path style="fill:#F09E26;" d="M161.778,396.176c60.314-34.078,109.1-85.376,140.09-147.336l0,0
				c16.725-33.45,38.741-63.998,65.182-90.45l75.711-75.691l3.551-3.324c-3.469-2.058-6.886-4.22-10.447-6.175
				c-4.683-2.522-9.459-4.879-14.296-7.112c-0.916-0.432-1.842-0.834-2.758-1.256c-4.508-2.058-9.057-3.942-13.689-5.723
				l-1.112-0.36c-27.893-10.581-57.37-16.406-87.187-17.209l-0.875,1.029c-43.146,44.741-81.444,93.908-114.246,146.698
				c-41.901,67.385-92.704,128.8-151.021,182.609l-1.42,1.256c2.553,10.447,5.733,20.729,9.521,30.795
				c0.144,0.371,0.298,0.741,0.432,1.112c1.781,4.621,3.705,9.181,5.723,13.679c0.412,0.916,0.823,1.842,1.256,2.758
				c2.233,4.837,4.59,9.623,7.112,14.296c2.233,4.117,4.683,8.121,7.122,12.125c15.356-11.744,31.32-22.664,47.819-32.74
				L161.778,396.176z"/>
			<path style="fill:#F5AE45;" d="M201.692,189.215c32.802-52.79,71.1-101.957,114.246-146.698l0.875-1.029
				c-2.614-0.062-5.218-0.237-7.853-0.237C161.212,41.2,41.388,160.932,41.336,308.68c-0.01,20.914,2.439,41.746,7.277,62.084
				c0.196,0.793,0.453,1.554,0.648,2.357l1.42-1.256C108.999,318.056,159.802,256.61,201.692,189.215z"/>
			<path style="fill:#F09E26;" d="M486.711,201.597l-50.526,34.356c-62.115,42.23-113.279,98.653-149.24,164.597l0,0
				c-21.624,39.667-48.817,76.02-80.755,107.978l-33.492,30.527c3.088,1.842,6.175,3.777,9.346,5.496
				c62.681-21.841,141.264-74.178,214.814-147.727S522.745,244.651,544.585,181.97l0,0c-3.211-5.949-6.639-11.754-10.292-17.425
				C519.235,177.894,503.343,190.265,486.711,201.597z"/>
			<path style="fill:#F5AE45;" d="M286.955,400.55L286.955,400.55c35.962-65.944,87.126-122.367,149.24-164.597l50.526-34.356
				c16.633-11.332,32.514-23.703,47.572-37.053c-22.386-34.799-52.502-63.957-88-85.211l-3.53,3.366l-75.691,75.691
				c-26.441,26.452-48.457,57-65.182,90.45l0,0c-31.001,61.96-79.787,113.258-140.111,147.336l-33.584,18.979
				c-16.468,10.076-32.401,21.007-47.726,32.74c22.86,37.454,54.54,68.733,92.272,91.119l33.45-30.486
				C238.128,476.57,265.331,440.217,286.955,400.55z"/>
			<path style="fill:#FABC5F;" d="M580.732,37.134C540.026-3.613,460.393,3.869,370.838,48.538l0,0
				c11.27,2.666,22.345,6.062,33.173,10.169l1.091,0.432c4.621,1.781,9.181,3.685,13.689,5.723c0.916,0.422,1.842,0.823,2.758,1.256
				c4.837,2.244,9.613,4.59,14.296,7.112c45.935-16.005,83.369-15.665,103.871,4.868c20.503,20.533,20.873,57.936,4.868,103.871l0,0
				c-21.841,62.681-74.178,141.295-147.727,214.814S244.725,522.67,182.044,544.552c-45.935,16.015-83.369,15.665-103.871-4.868
				s-20.883-57.977-4.91-103.913c-2.522-4.673-4.868-9.459-7.112-14.296c-0.432-0.916-0.844-1.842-1.256-2.758
				c-2.058-4.498-3.963-9.057-5.723-13.679c-0.134-0.371-0.288-0.741-0.432-1.112c-4.107-10.817-7.503-21.892-10.169-33.152
				C3.903,460.318-3.58,539.951,37.116,580.658c40.696,40.707,120.38,33.214,209.935-11.404l0,0
				c68.558-35.663,131.033-81.959,185.099-137.178c55.198-54.066,101.483-116.541,137.126-185.099
				C613.956,157.422,621.429,77.789,580.732,37.134z"/>
			<path style="fill:#F5AE45;" d="M370.838,48.538L370.838,48.538c11.27,2.666,22.345,6.062,33.173,10.169l1.091,0.432
				c4.621,1.781,9.181,3.685,13.689,5.723c0.916,0.422,1.842,0.823,2.758,1.256c4.837,2.244,9.613,4.59,14.296,7.112
				c39.698-13.833,72.973-15.387,94.546-2.316c19.978-7.791,40.336-14.554,61.014-20.245c-3.067-4.879-6.649-9.418-10.673-13.535
				C540.026-3.613,460.393,3.869,370.838,48.538z"/>
			<path d="M29.901,587.914c22.252,20.677,51.925,31.443,82.257,29.848c38.607,0,85.026-12.701,136.2-37.794
				c149.487,33.708,297.997-60.139,331.705-209.626c9.068-40.192,9.068-81.887,0-122.079c47.345-96.564,50.34-176.083,7.956-218.467
				S466.126-9.593,369.552,37.752C220.054,4.065,71.545,97.942,37.857,247.44c-9.057,40.171-9.047,81.856,0,122.017
				C-9.498,466.02-12.483,545.581,29.901,587.914z M308.96,566.166c-10.323,0-20.636-0.628-30.877-1.873
				c6.999-3.963,13.998-8.121,21.007-12.464c1.276-0.793,2.542-1.657,3.808-2.45c6.175-3.901,12.413-7.915,18.598-12.094
				c2.614-1.77,5.218-3.633,7.822-5.445c4.868-3.376,9.726-6.803,14.574-10.344c2.882-2.059,5.743-4.282,8.615-6.443
				c4.58-3.427,9.15-6.958,13.71-10.581c2.913-2.295,5.815-4.611,8.697-6.958c4.57-3.716,9.119-7.524,13.648-11.322
				c2.769-2.357,5.548-4.693,8.306-7.102c4.868-4.251,9.695-8.625,14.502-13.03c2.336-2.131,4.683-4.199,6.989-6.361
				c7.081-6.628,14.111-13.38,21.048-20.307s13.679-13.967,20.297-21.048c2.161-2.305,4.23-4.642,6.361-6.968
				c4.415-4.827,8.79-9.654,13.04-14.533c2.419-2.758,4.755-5.537,7.112-8.316c3.839-4.518,7.637-9.047,11.322-13.596
				c2.367-2.913,4.693-5.826,7.009-8.738c3.592-4.56,7.112-9.129,10.56-13.71c2.161-2.861,4.323-5.723,6.433-8.594
				c3.571-4.889,7.03-9.788,10.437-14.698c1.77-2.553,3.602-5.146,5.331-7.658c4.354-6.392,8.512-12.814,12.495-19.267
				c0.669-1.029,1.389-2.058,2.058-3.17c4.354-7.03,8.522-14.059,12.505-21.089c17.106,140.996-83.328,269.178-224.324,286.284
				C329.73,565.548,319.356,566.166,308.96,566.166z M321.311,51.904c27.069,1.287,53.757,6.844,79.087,16.468l0.072-0.206
				c0.309,0.226,0.628,0.422,0.957,0.607l0,0l0,0c4.436,1.698,8.79,3.541,13.143,5.506l2.635,1.184
				c4.117,1.904,8.162,3.932,12.155,6.052l-69.618,69.608c-27.234,27.224-49.898,58.667-67.107,93.116
				c-29.992,60.159-77.317,109.954-135.86,142.983l-33.595,18.979c-13.864,7.874-27.182,16.653-39.873,26.297
				c-0.298-0.546-0.648-1.029-0.947-1.616c-2.419-4.487-4.683-9.078-6.824-13.72l-1.215-2.676c-1.904-4.24-3.705-8.522-5.393-12.876
				c-0.124-0.319-0.237-0.597-0.36-0.926h-0.082c-0.051-0.144,0-0.288-0.072-0.432c-2.954-7.791-5.414-15.799-7.596-23.858
				c57.679-53.727,107.999-114.853,149.642-181.785C242.378,143.342,279.534,95.513,321.311,51.904z M461.288,76.544
				c32.504-7.75,57.442-4.909,71.152,8.81c13.71,13.72,16.561,38.648,8.81,71.141C520.367,124.641,493.154,97.427,461.288,76.544z
				 M533.336,182.793c-0.484,1.328-0.978,2.655-1.492,3.983c-0.772,2.059-1.534,4.035-2.367,6.062
				c-0.834,2.028-1.719,4.117-2.604,6.175c-0.885,2.058-1.739,4.055-2.666,6.103c-0.926,2.048-1.976,4.251-2.985,6.381
				s-1.935,4.117-2.964,6.175c-1.029,2.058-2.203,4.343-3.325,6.525c-1.122,2.182-2.13,4.117-3.252,6.227
				c-1.122,2.11-2.439,4.446-3.685,6.67c-1.245,2.223-2.306,4.168-3.52,6.268s-2.676,4.529-4.035,6.803
				c-1.245,2.058-2.48,4.179-3.777,6.278c-1.41,2.285-2.882,4.59-4.343,6.886c-1.348,2.12-2.666,4.22-4.055,6.34
				c-1.503,2.306-3.088,4.611-4.642,6.927c-1.431,2.12-2.841,4.251-4.323,6.381c-1.595,2.316-3.263,4.632-4.92,6.958
				c-1.523,2.141-3.026,4.282-4.59,6.433c-1.698,2.326-3.458,4.642-5.146,6.968c-1.606,2.151-3.191,4.292-4.837,6.443
				c-1.781,2.326-3.633,4.652-5.465,6.989c-1.688,2.151-3.355,4.302-5.084,6.453c-1.853,2.306-3.777,4.611-5.671,6.917
				c-1.894,2.305-3.53,4.333-5.352,6.495c-1.986,2.347-4.035,4.693-6.052,7.04c-1.811,2.059-3.592,4.21-5.434,6.309
				c-2.192,2.48-4.446,4.961-6.68,7.441c-1.75,1.935-3.469,3.891-5.249,5.826c-2.583,2.81-5.239,5.609-7.874,8.409
				c-1.503,1.585-2.964,3.18-4.488,4.765c-4.189,4.374-8.45,8.718-12.773,13.051s-8.666,8.584-13.041,12.773
				c-1.657,1.585-3.335,3.088-5.002,4.693c-2.728,2.573-5.455,5.146-8.234,7.678c-1.956,1.791-3.911,3.52-5.877,5.29
				c-2.46,2.213-4.91,4.457-7.38,6.628c-2.059,1.842-4.21,3.633-6.32,5.445c-2.347,2.059-4.693,4.117-7.05,6.062
				c-2.058,1.76-4.199,3.458-6.289,5.146c-2.388,1.966-4.765,3.952-7.143,5.856c-2.058,1.688-4.199,3.314-6.299,4.961
				c-2.378,1.873-4.745,3.757-7.122,5.578c-2.059,1.616-4.199,3.16-6.309,4.735c-2.378,1.781-4.755,3.582-7.133,5.321
				c-2.058,1.503-4.117,2.954-6.175,4.415c-2.398,1.719-4.796,3.438-7.205,5.095c-2.058,1.42-4.117,2.779-6.175,4.117
				c-2.398,1.616-4.796,3.252-7.205,4.817c-2.058,1.328-4.055,2.594-6.083,3.891c-2.378,1.513-4.765,3.088-7.133,4.508
				c-2.059,1.245-4.024,2.429-6.042,3.633c-2.357,1.41-4.714,2.83-7.061,4.179c-2.059,1.163-4.004,2.254-6,3.376
				c-2.316,1.287-4.632,2.594-6.927,3.829c-1.997,1.029-3.973,2.058-5.949,3.088c-2.285,1.184-4.57,2.367-6.844,3.489
				c-1.945,0.968-3.88,1.884-5.815,2.8c-2.254,1.029-4.508,2.141-6.752,3.149l0,0l8.399-8.399
				c32.627-32.627,60.417-69.772,82.515-110.284c35.252-64.41,85.273-119.547,145.957-160.891l50.526-34.408
				c13.535-9.325,26.585-19.329,39.111-29.972C532.193,181.023,532.79,181.877,533.336,182.793z M520.563,162.62
				c-12.639,10.848-25.855,21.017-39.595,30.445l-50.556,34.356C367.01,270.639,314.755,328.277,277.929,395.6
				c-21.151,38.792-47.757,74.353-78.995,105.59l-25.968,25.958c-31.577-19.648-58.513-45.915-78.943-76.987
				c12.485-9.582,25.618-18.279,39.307-26.03l33.595-19.01c62.125-35.035,112.332-87.867,144.166-151.69
				c16.221-32.473,37.578-62.115,63.257-87.774l73.437-73.437c28.675,18.413,53.407,42.343,72.747,70.4
				C520.532,162.62,520.563,162.62,520.563,162.62z M156.632,541.166c-32.504,7.761-57.442,4.91-71.152-8.81
				s-16.581-38.648-8.831-71.172C97.533,493.059,124.767,520.282,156.632,541.166z M293.264,52.069
				c-37.434,40.717-71.018,84.82-100.31,131.743c-38.555,61.94-84.727,118.795-137.445,169.228
				C31.003,213.207,124.489,79.971,264.322,55.465C273.894,53.788,283.559,52.655,293.264,52.069z M46.41,399.964
				c0.844,2.419,1.719,4.827,2.625,7.205l0.134,0.381l0.422,1.142l0,0l0,0c1.842,4.796,3.839,9.521,5.949,14.193l0,0l0.124,0.309
				l1.142,2.511l0.124,0.247c1.657,3.571,3.366,7.102,5.146,10.601c-16.54,49.918-13.535,87.99,8.749,110.273
				c23.024,22.993,62.599,25.515,114.627,7.39c66.839-23.292,146.554-78.027,218.704-150.167S531.02,252.246,554.322,185.345
				c18.135-52.018,15.603-91.603-7.308-114.545c-22.273-22.293-60.345-25.289-110.284-8.749c-3.571-1.842-7.184-3.613-10.859-5.301
				l-2.378-1.029l-0.473-0.216l0,0c-3.036-1.369-6.103-2.686-9.201-3.952c-1.637-0.69-3.283-1.338-4.92-1.956h-0.062l0,0
				l-1.122-0.443h-0.072c-2.491-0.957-5.012-1.873-7.544-2.748c77.296-33.296,141.068-34.356,173.376-2.069
				c35.674,35.684,30.672,109.697-13.38,198.016c-35.128,67.58-80.765,129.16-135.202,182.434
				c-53.274,54.437-114.843,100.073-182.423,135.202c-88.309,44.041-162.322,49.044-198.027,13.38
				C12.147,541.052,13.207,477.291,46.41,399.964z"/>
		</g>
	</g>
</g>
<g>
</g>
<g>
</g>
<g>
</g>
<g>
</g>
<g>
</g>
<g>
</g>
<g>
</g>
<g>
</g>
<g>
</g>
<g>
</g>
<g>
</g>
<g>
</g>
<g>
</g>
<g>
</g>
<g>
</g>
</svg>
